<?xml version="1.0" encoding="iso-8859-1"?>
<!-- Uploaded to: SVG Repo, www.svgrepo.com, Generator: SVG Repo Mixer Tools -->
<svg fill="#000000" height="800px" width="800px" version="1.1" id="Layer_1" xmlns="http://www.w3.org/2000/svg" xmlns:xlink="http://www.w3.org/1999/xlink" 
	 viewBox="0 0 512.001 512.001" xml:space="preserve">
<g>
	<g>
		<g>
			<path d="M417.375,95.122c-8.844-3.25-18.285-6.196-28.213-8.835c-2.007-20.755-16.37-39.723-40.97-53.846
				c-16.636-9.551-36.862-16.202-58.838-19.553v-2.624C289.354,4.595,284.76,0,279.092,0H232.91
				c-5.668,0-10.263,4.595-10.263,10.263v2.625c-21.975,3.352-42.202,10.002-58.838,19.553
				c-24.601,14.123-38.962,33.091-40.97,53.846c-9.928,2.64-19.369,5.585-28.213,8.835c-46.495,17.083-72.1,41.101-72.1,67.627
				c0,29.238,29.997,54.624,84.667,71.907v51.088c0,21.098,6.455,41.344,18.668,58.548c0.168,0.237,0.347,0.468,0.535,0.69
				l43.728,51.659c6.89,38.999,39.761,69.126,80.041,71.804l39.888,39.888c2.004,2.004,4.63,3.006,7.257,3.006
				c2.626,0,5.253-1.002,7.257-3.006l21.107-21.107l21.77,21.769c2.004,2.004,4.63,3.006,7.257,3.006
				c2.626,0,5.253-1.003,7.257-3.006l29.027-29.027c4.008-4.008,4.008-10.506,0-14.514l-21.769-21.769l23.646-23.646
				c4.008-4.008,4.008-10.506,0-14.515l-31.683-31.683l24.429-28.86c0.188-0.223,0.366-0.453,0.535-0.69
				c12.213-17.204,18.668-37.451,18.668-58.548v-51.088c54.669-17.283,84.666-42.668,84.666-71.907
				C489.475,136.222,463.869,112.205,417.375,95.122z M289.353,33.714c39.563,6.802,70.438,25.24,77.833,47.404
				c-24.066-4.968-50.36-8.275-77.833-9.756V33.714z M243.171,20.525h25.657v50.08c-4.257-0.087-8.532-0.135-12.828-0.135
				s-8.571,0.048-12.828,0.135V20.525z M222.646,33.714v37.649c-27.473,1.481-53.767,4.788-77.833,9.756
				C152.208,58.954,183.083,40.516,222.646,33.714z M189.292,381.429c0-36.782,29.925-66.707,66.707-66.707
				s66.707,29.925,66.707,66.707s-29.925,66.707-66.707,66.707S189.292,418.212,189.292,381.429z M354.699,487.224l-14.512-14.512
				l14.513-14.513l14.512,14.512L354.699,487.224z M371.088,412.782l-73.78,73.78l-20.441-20.441
				c33.225-8.189,59-35.461,65.01-69.479l5.991-7.078L371.088,412.782z M384.283,285.743c0,16.676-5.06,32.682-14.635,46.321
				l-27.97,33.043c-7.667-40.323-43.158-70.91-85.679-70.91s-78.012,30.588-85.679,70.91l-27.97-33.043
				c-9.576-13.638-14.635-29.645-14.635-46.321V172.754c0-9.431,7.673-17.105,17.105-17.105h222.357
				c9.431,0,17.105,7.673,17.105,17.105V285.743z M404.808,213.032v-40.278c0-20.749-16.881-37.63-37.63-37.63H144.821
				c-20.749,0-37.63,16.881-37.63,37.63v40.277c-39.896-13.694-64.142-32.459-64.142-50.283c0-33.939,87.455-71.753,212.95-71.753
				s212.95,37.815,212.95,71.753C468.95,180.573,444.704,199.338,404.808,213.032z"/>
			<path d="M353.495,176.176H158.504c-5.668,0-10.263,4.595-10.263,10.263v53.879c0,13.676,11.126,24.802,24.802,24.802h53.409
				c10.217,0,18.604-7.987,19.246-18.045h20.604c0.641,10.058,9.028,18.045,19.246,18.045h53.409
				c13.676,0,24.802-11.126,24.802-24.802v-53.879C363.757,180.771,359.163,176.176,353.495,176.176z M343.232,240.318
				c0,2.358-1.918,4.276-4.276,4.276h-52.207c-0.641-10.058-9.028-18.045-19.246-18.045h-23.006
				c-10.218,0-18.604,7.987-19.246,18.045h-52.208c-2.357,0-4.276-1.918-4.276-4.276v-43.616h174.465V240.318z"/>
			<path d="M255.999,335.246c-25.465,0-46.182,20.717-46.182,46.182c0,15.97,8.076,30.587,21.603,39.104
				c1.698,1.069,3.589,1.579,5.458,1.579c3.409,0,6.744-1.698,8.695-4.797c3.02-4.797,1.58-11.132-3.216-14.152
				c-7.523-4.736-12.013-12.861-12.013-21.734c0-14.147,11.51-25.657,25.657-25.657s25.657,11.51,25.657,25.657
				c0,5.668,4.595,10.263,10.263,10.263s10.263-4.595,10.263-10.263C302.181,355.963,281.464,335.246,255.999,335.246z"/>
			<path d="M269.644,403.162c-0.215,0.135-0.431,0.268-0.65,0.396c-4.884,2.875-6.514,9.166-3.638,14.05
				c1.913,3.25,5.337,5.058,8.854,5.058c1.769,0,3.562-0.458,5.196-1.42c0.397-0.234,0.791-0.473,1.181-0.719
				c4.795-3.022,6.232-9.36,3.211-14.154C280.776,401.578,274.439,400.141,269.644,403.162z"/>
		</g>
	</g>
</g>
</svg>