<?xml version="1.0" encoding="iso-8859-1"?>
<!-- Uploaded to: SVG Repo, www.svgrepo.com, Generator: SVG Repo Mixer Tools -->
<svg fill="#000000" height="800px" width="800px" version="1.1" id="Layer_1" xmlns="http://www.w3.org/2000/svg" xmlns:xlink="http://www.w3.org/1999/xlink" 
	 viewBox="0 0 512 512" xml:space="preserve">
<g>
	<g>
		<g>
			<path d="M426.667,42.667h-64V21.333C362.667,9.551,353.115,0,341.333,0H170.667c-11.782,0-21.333,9.551-21.333,21.333v21.333h-64
				C73.551,42.667,64,52.218,64,64v426.667C64,502.449,73.551,512,85.333,512h341.333c11.782,0,21.333-9.551,21.333-21.333V64
				C448,52.218,438.449,42.667,426.667,42.667z M192,42.667h128V64v21.333H192V64V42.667z M405.333,469.333H106.667v-384h42.667
				v21.333c0,11.782,9.551,21.333,21.333,21.333h170.667c11.782,0,21.333-9.551,21.333-21.333V85.333h42.667V469.333z"/>
			<path d="M341.333,192H256c-11.782,0-21.333,9.551-21.333,21.333c0,11.782,9.551,21.333,21.333,21.333h85.333
				c11.782,0,21.333-9.551,21.333-21.333C362.667,201.551,353.115,192,341.333,192z"/>
			<path d="M170.667,234.667H192c11.782,0,21.333-9.551,21.333-21.333c0-11.782-9.551-21.333-21.333-21.333h-21.333
				c-11.782,0-21.333,9.551-21.333,21.333C149.333,225.115,158.885,234.667,170.667,234.667z"/>
			<path d="M341.333,277.333H320c-11.782,0-21.333,9.551-21.333,21.333c0,11.782,9.551,21.333,21.333,21.333h21.333
				c11.782,0,21.333-9.551,21.333-21.333C362.667,286.885,353.115,277.333,341.333,277.333z"/>
			<path d="M170.667,320H256c11.782,0,21.333-9.551,21.333-21.333c0-11.782-9.551-21.333-21.333-21.333h-85.333
				c-11.782,0-21.333,9.551-21.333,21.333C149.333,310.449,158.885,320,170.667,320z"/>
			<path d="M341.333,362.667h-64C265.551,362.667,256,372.218,256,384c0,11.782,9.551,21.333,21.333,21.333h64
				c11.782,0,21.333-9.551,21.333-21.333C362.667,372.218,353.115,362.667,341.333,362.667z"/>
			<path d="M213.333,362.667h-42.667c-11.782,0-21.333,9.551-21.333,21.333c0,11.782,9.551,21.333,21.333,21.333h42.667
				c11.782,0,21.333-9.551,21.333-21.333C234.667,372.218,225.115,362.667,213.333,362.667z"/>
		</g>
	</g>
</g>
</svg>